PathFileType	4	(X/Y/Z)	C:\Users\Public\Documents\Vicon Data\AADs Machine\Fixing_spring_distance_56\90_lb_Spring\90_lb_Static.trc
DataRate	CameraRate	NumFrames	NumMarkers	Units	OrigDataRate	OrigDataStartFrame	OrigNumFrames
100.0	100.0	22	8	mm	100.0	105	314	
Frame#	Time	SpringTop			MMAL			LMAL			Shank			Heel			Foot			Toe			MP5			
		X1	Y1	Z1	X2	Y2	Z2	X3	Y3	Z3	X4	Y4	Z4	X5	Y5	Z5	X6	Y6	Z6	X7	Y7	Z7	X8	Y8	Z8	
105	1.04	-357.40906	144.29449	-610.79907	-289.41016	102.28583	-674.16858	-273.20114	111.51971	-552.89789	-221.27245	275.91013	-628.59418	-357.00266	85.193916	-608.02588	-178.79825	57.425858	-614.5097	-105.69091	38.575947	-630.25421	-165.36929	40.536228	-562.37366
106	1.05	-357.57257	144.27107	-610.73541	-289.40347	102.24546	-674.15375	-273.19064	111.531	-552.88861	-221.26225	275.89713	-628.59747	-357.08362	85.195076	-608.36438	-178.80502	57.435566	-614.50647	-105.69975	38.578892	-630.28735	-165.37483	40.551655	-562.37567
107	1.06	-357.53848	144.25282	-610.72968	-289.38675	102.32019	-674.16718	-273.19034	111.51711	-552.85364	-221.24345	275.92767	-628.57587	-357.12097	85.212852	-608.37219	-178.80576	57.446373	-614.45782	-105.70539	38.594109	-630.23297	-165.35693	40.540104	-562.34711
108	1.07	-357.37958	144.27214	-610.79895	-289.39801	102.29097	-674.14728	-273.22339	111.53226	-552.87616	-221.26326	275.91016	-628.59705	-357.08963	85.166138	-608.30511	-178.78934	57.453697	-614.47192	-105.69334	38.56781	-630.25031	-165.33722	40.523026	-562.36713
109	1.08	-357.582	144.25955	-610.77301	-289.40204	102.3186	-674.19904	-273.17371	111.53149	-552.89404	-221.248	275.90753	-628.62854	-357.01685	85.206055	-608.02441	-178.80728	57.446148	-614.49213	-105.69167	38.585224	-630.27454	-165.38754	40.557877	-562.37018
110	1.09	-357.55295	144.27039	-610.71228	-289.40305	102.31042	-674.16394	-273.17227	111.50044	-552.89136	-221.23471	275.90137	-628.59473	-357.04791	85.217033	-608.22607	-178.79887	57.449741	-614.46082	-105.68658	38.567833	-630.25122	-165.37961	40.551491	-562.35724
111	1.1	-357.55118	144.23064	-610.76038	-289.40997	102.27329	-674.18115	-273.17596	111.5036	-552.86316	-221.20958	275.89417	-628.61212	-357.11746	85.191803	-608.37549	-178.78725	57.42038	-614.48969	-105.67381	38.590031	-630.26282	-165.36104	40.516468	-562.35254
112	1.11	-357.58612	144.2748	-610.7345	-289.41791	102.28796	-674.17059	-273.2034	111.5284	-552.87921	-221.23024	275.89948	-628.63062	-357.09528	85.202057	-608.41241	-178.81895	57.438717	-614.48029	-105.70325	38.575752	-630.25439	-165.37869	40.549145	-562.35822
113	1.12	-357.55701	144.28154	-610.74762	-289.39923	102.32512	-674.17365	-273.1926	111.53037	-552.87012	-221.19507	275.90857	-628.6048	-357.11935	85.248863	-608.32294	-178.79832	57.449497	-614.48224	-105.69481	38.603748	-630.2804	-165.37057	40.536987	-562.34869
114	1.13	-357.51431	144.2392	-610.75208	-289.38461	102.29224	-674.18243	-273.16568	111.50082	-552.87866	-221.17526	275.89645	-628.6001	-357.07782	85.157463	-608.42499	-178.76962	57.418159	-614.48145	-105.67068	38.558815	-630.25708	-165.33725	40.536568	-562.36084
115	1.14	-357.60025	144.27185	-610.7326	-289.4227	102.24969	-674.17542	-273.19852	111.52737	-552.87769	-221.19499	275.90121	-628.61047	-357.12579	85.189262	-608.43146	-178.7964	57.443134	-614.47754	-105.71009	38.55492	-630.26672	-165.37091	40.505714	-562.36914
116	1.15	-357.58588	144.2915	-610.75287	-289.38742	102.27958	-674.18042	-273.1882	111.5518	-552.87006	-221.16199	275.91815	-628.62067	-357.14551	85.227539	-608.48627	-178.79718	57.442394	-614.48798	-105.69747	38.586456	-630.26929	-165.34279	40.542934	-562.37946
117	1.16	-357.33987	144.28325	-610.81104	-289.37271	102.30637	-674.18048	-273.16565	111.50321	-552.89801	-221.1521	275.89551	-628.61261	-356.98636	85.197746	-607.99084	-178.78259	57.432858	-614.48163	-105.70282	38.583149	-630.2572	-165.35643	40.532482	-562.35663
118	1.17	-357.53558	144.22441	-610.79358	-289.41565	102.25471	-674.18213	-273.18451	111.51638	-552.888	-221.15981	275.8765	-628.65002	-356.98953	85.178261	-608.01721	-178.79146	57.412586	-614.50354	-105.6948	38.569969	-630.29254	-165.35535	40.507881	-562.37366
119	1.18	-357.37976	144.35092	-610.80084	-289.39975	102.25903	-674.17133	-273.20642	111.54726	-552.89301	-221.15428	275.89798	-628.66833	-357.12457	85.216934	-608.41077	-178.80156	57.437641	-614.49634	-105.6951	38.578373	-630.27686	-165.35742	40.551559	-562.37225
120	1.19	-357.34637	144.293	-610.80029	-289.41043	102.30591	-674.19421	-273.16751	111.5438	-552.88513	-221.13466	275.89249	-628.67175	-357.10764	85.246803	-608.38342	-178.79665	57.422859	-614.48364	-105.71193	38.596367	-630.26373	-165.36682	40.535225	-562.35492
121	1.2	-357.52124	144.26543	-610.74902	-289.41187	102.25089	-674.21143	-273.17572	111.54149	-552.90918	-221.18053	275.85773	-628.70361	-356.97595	85.183754	-608.06512	-178.77113	57.422131	-614.50671	-105.69194	38.553513	-630.28937	-165.34859	40.535839	-562.3775
122	1.21	-357.53973	144.27881	-610.78491	-289.42426	102.22733	-674.18652	-273.19232	111.53682	-552.91113	-221.14626	275.88354	-628.70978	-357.09943	85.146263	-608.44629	-178.79427	57.422817	-614.4986	-105.69643	38.553043	-630.28406	-165.35049	40.517956	-562.38885
123	1.22	-357.54413	144.29755	-610.73267	-289.3757	102.28642	-674.19562	-273.18558	111.54984	-552.88239	-221.13197	275.90515	-628.69177	-357.09106	85.171478	-608.45911	-178.793	57.435123	-614.48798	-105.69674	38.594921	-630.28113	-165.35359	40.54446	-562.37305
124	1.23	-357.31857	144.29352	-610.8609	-289.41022	102.2859	-674.18634	-273.17557	111.52251	-552.91754	-221.13278	275.8793	-628.69	-356.98383	85.204994	-608.00714	-178.79692	57.426159	-614.47925	-105.69366	38.586784	-630.28967	-165.34329	40.520241	-562.37958
125	1.24	-357.38376	144.2688	-610.84381	-289.40909	102.24992	-674.1908	-273.17825	111.53794	-552.90894	-221.14975	275.88193	-628.68652	-357.08932	85.168266	-608.45337	-178.78036	57.42622	-614.48798	-105.70853	38.538395	-630.28821	-165.34848	40.515362	-562.36652
126	1.25	-357.3866	144.32915	-610.79883	-289.40897	102.27809	-674.21399	-273.18286	111.53999	-552.90979	-221.151	275.90747	-628.69135	-357.13797	85.223991	-608.44226	-178.80066	57.434155	-614.49097	-105.67947	38.583622	-630.3078	-165.35698	40.540974	-562.37097
